<svg width="25" height="26" viewBox="0 0 25 26" fill="none" xmlns="http://www.w3.org/2000/svg">
<g filter="url(#filter0_d_613:137)">
<path fill-rule="evenodd" clip-rule="evenodd" d="M5.11337 3.62094C5.50016 3.23414 6.02477 3.01685 6.57178 3.01685H11.8218C12.1324 3.01685 12.3843 3.26869 12.3843 3.57935C12.3843 3.89001 12.1324 4.14185 11.8218 4.14185H6.57178C6.32314 4.14185 6.08468 4.24062 5.90886 4.41643C5.73305 4.59225 5.63428 4.83071 5.63428 5.07935V15.5793C5.63428 15.828 5.73305 16.0664 5.90886 16.2423C6.08468 16.4181 6.32314 16.5168 6.57178 16.5168H17.0718C17.3204 16.5168 17.5589 16.4181 17.7347 16.2423C17.9105 16.0664 18.0093 15.828 18.0093 15.5793V10.3293C18.0093 10.0187 18.2611 9.76685 18.5718 9.76685C18.8824 9.76685 19.1343 10.0187 19.1343 10.3293V15.5793C19.1343 16.1264 18.917 16.651 18.5302 17.0378C18.1434 17.4245 17.6188 17.6418 17.0718 17.6418H6.57178C6.02477 17.6418 5.50016 17.4245 5.11337 17.0378C4.72658 16.651 4.50928 16.1264 4.50928 15.5793V5.07935C4.50928 4.53234 4.72658 4.00773 5.11337 3.62094Z" fill="#282846"/>
<path fill-rule="evenodd" clip-rule="evenodd" d="M18.5718 2.55078C18.299 2.55078 18.0374 2.65914 17.8445 2.85202L10.8297 9.86685L10.3449 11.8062L12.2842 11.3214L19.299 4.30652C19.4919 4.11364 19.6003 3.85204 19.6003 3.57927C19.6003 3.3065 19.4919 3.0449 19.299 2.85202C19.1062 2.65914 18.8446 2.55078 18.5718 2.55078ZM17.049 2.05652C17.4529 1.65267 18.0006 1.42578 18.5718 1.42578C19.1429 1.42578 19.6907 1.65267 20.0945 2.05652C20.4984 2.46038 20.7253 3.00813 20.7253 3.57927C20.7253 4.15041 20.4984 4.69816 20.0945 5.10202L12.9695 12.227C12.8974 12.2991 12.8071 12.3503 12.7082 12.375L9.70822 13.125C9.51653 13.1729 9.31376 13.1167 9.17404 12.977C9.03433 12.8373 8.97816 12.6345 9.02608 12.4428L9.77608 9.44285C9.80081 9.34394 9.85195 9.25361 9.92404 9.18153L17.049 2.05652Z" fill="#282846"/>
</g>
<defs>
<filter id="filter0_d_613:137" x="-0.428223" y="0.579346" width="26" height="26" filterUnits="userSpaceOnUse" color-interpolation-filters="sRGB">
<feFlood flood-opacity="0" result="BackgroundImageFix"/>
<feColorMatrix in="SourceAlpha" type="matrix" values="0 0 0 0 0 0 0 0 0 0 0 0 0 0 0 0 0 0 127 0" result="hardAlpha"/>
<feOffset dy="4"/>
<feGaussianBlur stdDeviation="2"/>
<feComposite in2="hardAlpha" operator="out"/>
<feColorMatrix type="matrix" values="0 0 0 0 0 0 0 0 0 0 0 0 0 0 0 0 0 0 0.25 0"/>
<feBlend mode="normal" in2="BackgroundImageFix" result="effect1_dropShadow_613:137"/>
<feBlend mode="normal" in="SourceGraphic" in2="effect1_dropShadow_613:137" result="shape"/>
</filter>
</defs>
</svg>
