<svg width="19" height="19" viewBox="0 0 19 19" fill="none" xmlns="http://www.w3.org/2000/svg">
<path fill-rule="evenodd" clip-rule="evenodd" d="M2.25928 5.07935C2.25928 4.76869 2.51112 4.51685 2.82178 4.51685H16.3218C16.6324 4.51685 16.8843 4.76869 16.8843 5.07935C16.8843 5.39001 16.6324 5.64185 16.3218 5.64185H2.82178C2.51112 5.64185 2.25928 5.39001 2.25928 5.07935Z" fill="#F05454"/>
<path fill-rule="evenodd" clip-rule="evenodd" d="M8.07178 2.64185C7.82314 2.64185 7.58468 2.74062 7.40886 2.91643C7.23305 3.09225 7.13428 3.33071 7.13428 3.57935V4.51685H12.0093V3.57935C12.0093 3.33071 11.9105 3.09225 11.7347 2.91643C11.5589 2.74062 11.3204 2.64185 11.0718 2.64185H8.07178ZM13.1343 4.51685V3.57935C13.1343 3.03234 12.917 2.50773 12.5302 2.12094C12.1434 1.73414 11.6188 1.51685 11.0718 1.51685H8.07178C7.52477 1.51685 7.00016 1.73414 6.61337 2.12094C6.22658 2.50773 6.00928 3.03234 6.00928 3.57935V4.51685H4.32178C4.01112 4.51685 3.75928 4.76869 3.75928 5.07935V15.5793C3.75928 16.1264 3.97658 16.651 4.36337 17.0378C4.75016 17.4245 5.27477 17.6418 5.82178 17.6418H13.3218C13.8688 17.6418 14.3934 17.4245 14.7802 17.0378C15.167 16.651 15.3843 16.1264 15.3843 15.5793V5.07935C15.3843 4.76869 15.1324 4.51685 14.8218 4.51685H13.1343ZM4.88428 5.64185V15.5793C4.88428 15.828 4.98305 16.0664 5.15886 16.2423C5.33468 16.4181 5.57314 16.5168 5.82178 16.5168H13.3218C13.5704 16.5168 13.8089 16.4181 13.9847 16.2423C14.1605 16.0664 14.2593 15.828 14.2593 15.5793V5.64185H4.88428Z" fill="#F05454"/>
</svg>
